<?xml version="1.0" standalone="no"?>
<!DOCTYPE svg PUBLIC "-//W3C//DTD SVG 20010904//EN"
 "http://www.w3.org/TR/2001/REC-SVG-20010904/DTD/svg10.dtd">
<svg version="1.0" xmlns="http://www.w3.org/2000/svg"
 width="350" height="350" viewBox="0 0 350 350"
 preserveAspectRatio="xMidYMid meet">
<metadata>
Created by potrace 1.16, written by Peter Selinger 2001-2019
</metadata>
<g transform="translate(0.000000,400.000000) scale(0.100000,-0.100000)"
fill="#000000" stroke="none">
<path d="M0 2000 l0 -2000 2000 0 2000 0 0 2000 0 2000 -2000 0 -2000 0 0
-2000z m2281 1134 c221 -79 385 -257 446 -484 26 -94 26 -427 0 -520 -72 -263
-279 -455 -544 -506 -41 -8 -133 -14 -204 -14 l-128 0 -406 -186 c-274 -124
-412 -183 -426 -179 -42 14 -34 47 55 225 83 166 85 172 64 178 -13 3 -57 23
-99 44 -126 63 -246 188 -306 318 -49 105 -56 147 -60 351 -5 176 -3 206 16
280 34 137 82 220 186 324 101 102 185 151 315 185 70 18 106 19 540 17 l465
-2 86 -31z m616 -421 c218 -87 375 -277 422 -511 6 -29 11 -131 11 -226 0
-139 -4 -188 -20 -249 -51 -200 -184 -365 -365 -452 -38 -18 -77 -36 -87 -38
-13 -5 -2 -34 69 -176 88 -177 97 -212 54 -226 -11 -3 -165 62 -430 183 l-413
189 -156 2 c-87 1 -175 6 -197 12 -94 23 -223 86 -273 132 l-23 21 33 18 c43
23 64 22 98 -2 95 -67 237 -100 436 -100 120 0 122 0 205 -39 321 -149 593
-271 596 -267 7 7 -96 204 -123 236 -43 51 -30 72 61 95 195 51 352 203 421
405 16 47 19 86 19 260 0 191 -2 210 -25 280 -56 170 -200 319 -362 375 -52
17 -56 21 -71 68 l-16 49 37 -7 c20 -4 64 -18 99 -32z"/>
<path d="M1222 3065 c-172 -38 -333 -170 -408 -334 -46 -99 -56 -177 -51 -376
4 -162 7 -187 29 -247 74 -196 232 -342 423 -388 81 -19 95 -44 51 -95 -29
-33 -130 -224 -123 -231 3 -3 56 18 118 47 63 28 215 97 339 154 l225 103 170
5 c208 6 291 28 401 106 116 82 189 178 231 305 26 77 27 90 27 281 0 190 -2
204 -27 273 -66 188 -191 312 -387 385 -52 20 -77 21 -505 24 -355 2 -463 -1
-513 -12z m20 -583 c102 -59 56 -232 -62 -232 -152 0 -188 199 -45 248 34 11
68 6 107 -16z m538 -1 c68 -47 74 -140 13 -198 -29 -28 -42 -33 -83 -33 -41 0
-55 5 -84 30 -119 105 23 291 154 201z m532 2 c35 -17 58 -61 58 -108 0 -137
-186 -174 -242 -49 -17 39 -18 50 -7 82 16 49 27 62 74 83 41 19 69 17 117 -8z"/>
</g>
</svg>
